<svg xmlns="http://www.w3.org/2000/svg" width="12" height="12" fill="none"><path fill="#131313" d="M10.416 2.064H8.4v-.768a.096.096 0 0 0-.096-.096h-.672a.096.096 0 0 0-.096.096v.768H4.464v-.768a.096.096 0 0 0-.096-.096h-.672a.096.096 0 0 0-.096.096v.768H1.584a.384.384 0 0 0-.384.384v7.968c0 .212.172.384.384.384h8.832a.384.384 0 0 0 .384-.384V2.448a.384.384 0 0 0-.384-.384Zm-.48 7.872H2.064v-4.56h7.872v4.56ZM2.064 4.56V2.928H3.6v.576c0 .053.043.096.096.096h.672a.096.096 0 0 0 .096-.096v-.576h3.072v.576c0 .053.043.096.096.096h.672a.096.096 0 0 0 .096-.096v-.576h1.536V4.56H2.064Z"/></svg>