<svg width="44" height="44" fill="none" xmlns="http://www.w3.org/2000/svg"><path d="M22.016 24.293h-2.268v-3.101h2.268a1.44 1.44 0 0 1 1.116.4c.297.297.454.715.436 1.15.018.436-.14.854-.436 1.15a1.395 1.395 0 0 1-1.116.401Zm-2.268-7.265h2.146a1.402 1.402 0 0 1 1.343.679c.279.488.279 1.098 0 1.568-.28.47-.803.75-1.343.68h-2.146v-2.927Zm3.995 3.763-.541-.261.54-.262a2.124 2.124 0 0 0 1.082-1.864c0-1.638-1.029-2.614-2.756-2.614h-3.68v9.74h3.837c1.71 0 2.739-1.01 2.739-2.683.035-.889-.454-1.707-1.221-2.056ZM12.805 24.19v-7.057h1.29v5.82h2.984v1.22h-4.274v.017Zm16.241 0a2.272 2.272 0 0 1-1.744-.662 2.43 2.43 0 0 1-.716-1.778v-4.6h1.309v4.53c-.035.454.192.89.558 1.116.366.244.837.244 1.204 0a1.23 1.23 0 0 0 .558-1.115v-4.548h1.29v4.6c0 .68-.26 1.324-.714 1.777-.471.47-1.1.715-1.745.68ZM21.998 8.403c-4.92 0-9.35 3.031-11.234 7.666-1.884 4.635-.838 9.984 2.634 13.539 3.471 3.554 8.705 4.617 13.24 2.7 4.536-1.916 7.502-6.447 7.502-11.482 0-6.848-5.443-12.423-12.142-12.423Zm0 24.341c-4.71 0-8.967-2.892-10.763-7.353-1.797-4.46-.803-9.583 2.53-12.98 3.331-3.416 8.338-4.427 12.7-2.58 4.343 1.847 7.187 6.186 7.187 11.012-.018 6.552-5.234 11.884-11.654 11.901Zm0-25.126c-5.233 0-9.943 3.224-11.95 8.155-2.006 4.93-.89 10.629 2.792 14.41 3.698 3.78 9.245 4.913 14.078 2.875 4.832-2.039 7.972-6.866 7.972-12.215.018-7.3-5.757-13.225-12.892-13.225Zm0 27.652c-5.704 0-10.868-3.52-13.049-8.92-2.18-5.402-.977-11.605 3.053-15.735C16.032 6.485 22.12 5.25 27.39 7.48c5.268 2.23 8.722 7.51 8.705 13.347 0 7.98-6.315 14.427-14.096 14.444ZM29.5.178c-2.582-.61-5.722.54-5.722.54a5.006 5.006 0 0 1-1.762.314 4.852 4.852 0 0 1-1.797-.279S17.06-.432 14.497.213c0 0-2.53.488-1.937 3.833 0 0 .14-2.596 3.35-2.596 0 0 1.204-.052 3.733 1.133.227.122.471.226.715.313.157.053.332.105.541.14l.175.035c.07.017.157.035.226.035.471.07.942.07 1.396 0l.227-.088.21-.052h.086c.122-.035.245-.07.367-.122.244-.087.488-.191.733-.313 2.512-1.168 3.733-1.133 3.733-1.133 3.21 0 3.35 2.596 3.35 2.596C32.028.684 29.481.178 29.5.178ZM.017 21.628c.35-2.701 2.547-5.315 2.547-5.315.402-.47.716-.993.925-1.585.21-.575.314-1.185.331-1.813 0 0 0-3.467 1.483-5.715 0 0 1.344-2.247 4.222-.47 0 0-2.46-.82-3.594 2.282 0 0-.47 1.115-.279 3.99.035.262.053.54.035.82 0 .191-.017.383-.035.557 0 .07 0 .122-.035.174l-.052.244a5.19 5.19 0 0 1-.506 1.342c-.035.07-.07.122-.105.192l-.122.191c-.017.018-.035.052-.052.07-.07.104-.157.209-.244.314a8.167 8.167 0 0 1-.541.557c-1.971 2.039-2.373 3.206-2.373 3.206-1.134 3.084 1.239 4.165 1.239 4.165-3.262-.61-2.844-3.207-2.844-3.207Zm43.98.017c-.35-2.7-2.565-5.314-2.565-5.314a5.289 5.289 0 0 1-.907-1.586 4.909 4.909 0 0 1-.331-1.812s0-3.468-1.483-5.733c0 0-1.344-2.247-4.24-.47 0 0 2.478-.82 3.612 2.282 0 0 .47 1.133.279 4.008a6.27 6.27 0 0 0-.053.819c0 .174 0 .366.053.557v.175c0 .052.035.156.052.244.105.47.28.923.506 1.341l.105.192.122.192.052.07c.07.104.157.226.244.313.175.192.35.383.541.558 1.989 2.003 2.373 3.188 2.373 3.188 1.151 3.102-1.239 4.182-1.239 4.182 3.315-.627 2.861-3.241 2.861-3.241l.017.035ZM3.628 33.267c1.831 2.003 5.163 2.788 5.163 2.788a5.292 5.292 0 0 1 2.966 2.003s2.006 2.823 4.518 3.764c0 0 2.408 1.028 3.751-2.16 0 0-1.57 2.16-4.274.313 0 0-1.047-.645-2.53-3.102-.122-.243-.279-.47-.436-.696a2.856 2.856 0 0 0-.366-.436l-.122-.122-.175-.157a4.808 4.808 0 0 0-1.168-.801l-.192-.087-.21-.088-.087-.034a1.452 1.452 0 0 0-.366-.105 4.052 4.052 0 0 0-.803-.122c-2.756-.436-3.768-1.167-3.768-1.167C2.81 31.21 4.152 28.91 4.152 28.91c-2.373 2.491-.506 4.356-.523 4.356Zm36.704 0c-1.832 2.003-5.146 2.788-5.146 2.788a5.247 5.247 0 0 0-2.983 2.003s-1.99 2.823-4.501 3.764c0 0-2.408 1.028-3.75-2.16 0 0 1.57 2.16 4.273.313 0 0 1.047-.645 2.512-3.102.122-.243.28-.47.436-.696.105-.14.227-.297.367-.436.035-.052.087-.087.122-.122l.174-.157c.35-.314.75-.592 1.186-.801l.192-.087.21-.088.087-.034c.227-.087.366-.105.366-.105.262-.07.541-.105.803-.14 2.756-.435 3.768-1.167 3.768-1.167 2.704-1.847 1.378-4.147 1.378-4.147 2.373 2.51.506 4.374.506 4.374ZM22.155 44l1.152-7.719h-2.303L22.155 44Zm21.51-16.117-6.821-3.694-.366 1.185-.367 1.184 7.554 1.325Zm-43.351 0 6.821-3.694.366 1.185.367 1.184-7.554 1.325ZM35.448 1.677l-3.646 7.057-.976-.732-.977-.732 5.6-5.593Zm-26.917 0 3.646 7.057.977-.732.976-.732-5.6-5.593Z" fill="#131313"/></svg>