<svg xmlns="http://www.w3.org/2000/svg" width="35" height="35" fill="none"><path fill="#131313" d="M17.512 19.324H15.71v-2.467h1.803c.32-.028.639.083.889.319.236.236.36.568.346.915a1.22 1.22 0 0 1-.346.914 1.11 1.11 0 0 1-.889.32Zm-1.803-5.78h1.706c.43-.041.847.167 1.069.541.222.388.222.873 0 1.247a1.091 1.091 0 0 1-1.069.541H15.71v-2.328Zm3.177 2.994-.43-.208.43-.207c.528-.292.86-.86.86-1.484 0-1.302-.818-2.079-2.192-2.079h-2.928v7.748h3.053c1.36 0 2.179-.804 2.179-2.134.027-.707-.361-1.358-.972-1.636Zm-8.7 2.703v-5.613h1.026v4.629h2.373v.97h-3.4v.014Zm12.919 0a1.807 1.807 0 0 1-1.388-.527 1.933 1.933 0 0 1-.569-1.413v-3.66h1.041v3.604a.965.965 0 0 0 .444.887.86.86 0 0 0 .957 0 .98.98 0 0 0 .445-.887v-3.617h1.026v3.659a2 2 0 0 1-.569 1.414 1.82 1.82 0 0 1-1.387.54ZM17.499 6.684c-3.914 0-7.438 2.411-8.937 6.098-1.499 3.687-.666 7.942 2.095 10.77 2.762 2.827 6.925 3.672 10.533 2.148 3.608-1.525 5.967-5.128 5.967-9.134 0-5.447-4.33-9.882-9.658-9.882Zm0 19.362c-3.747 0-7.133-2.3-8.562-5.849-1.43-3.548-.639-7.623 2.012-10.325 2.65-2.717 6.633-3.52 10.102-2.052 3.455 1.47 5.717 4.92 5.717 8.76-.014 5.211-4.163 9.453-9.27 9.466Zm0-19.986c-4.163 0-7.91 2.564-9.506 6.487-1.596 3.922-.708 8.454 2.22 11.462 2.942 3.008 7.355 3.909 11.199 2.287 3.844-1.622 6.341-5.461 6.341-9.716.014-5.807-4.579-10.52-10.254-10.52Zm0 21.996c-4.538 0-8.646-2.8-10.38-7.096-1.735-4.297-.777-9.231 2.428-12.516 3.206-3.285 8.049-4.269 12.24-2.495 4.19 1.774 6.938 5.974 6.924 10.617 0 6.348-5.023 11.476-11.212 11.49ZM23.466.142c-2.054-.485-4.552.43-4.552.43a3.98 3.98 0 0 1-1.402.249 3.86 3.86 0 0 1-1.429-.222s-2.511-.942-4.551-.43c0 0-2.013.389-1.54 3.05 0 0 .11-2.065 2.664-2.065 0 0 .957-.042 2.97.9.18.098.374.18.568.25.125.042.264.083.43.11l.14.029a.814.814 0 0 0 .18.027c.374.056.749.056 1.11 0l.18-.069.167-.042h.069c.097-.027.194-.055.291-.097.195-.069.389-.152.583-.249 1.998-.929 2.97-.9 2.97-.9 2.553 0 2.664 2.064 2.664 2.064.5-2.633-1.526-3.035-1.512-3.035ZM.014 17.204c.277-2.149 2.026-4.228 2.026-4.228.32-.374.569-.79.735-1.261a4.57 4.57 0 0 0 .264-1.441s0-2.759 1.18-4.547c0 0 1.068-1.787 3.358-.374 0 0-1.957-.651-2.859 1.816 0 0-.375.887-.222 3.174.028.208.042.43.028.651 0 .153-.014.305-.028.444 0 .055 0 .097-.028.138l-.041.194a4.128 4.128 0 0 1-.403 1.068c-.027.055-.055.097-.083.152l-.097.153c-.014.013-.028.041-.042.055a3.045 3.045 0 0 1-.194.25c-.139.152-.278.304-.43.443-1.568 1.622-1.887 2.55-1.887 2.55-.902 2.454.985 3.313.985 3.313-2.595-.485-2.262-2.55-2.262-2.55Zm34.983.014c-.277-2.149-2.04-4.228-2.04-4.228a4.208 4.208 0 0 1-.721-1.261 3.905 3.905 0 0 1-.264-1.442s0-2.758-1.18-4.56c0 0-1.068-1.787-3.372-.374 0 0 1.971-.651 2.873 1.816 0 0 .375.9.222 3.188-.028.208-.042.43-.042.651 0 .139 0 .291.042.444v.138c0 .042.028.125.042.194.083.375.222.735.402 1.068l.083.152.098.152.041.056c.056.083.125.18.194.25.14.152.278.304.43.443 1.583 1.594 1.888 2.536 1.888 2.536.916 2.467-.985 3.327-.985 3.327 2.636-.5 2.275-2.578 2.275-2.578l.014.027Zm-32.11 9.244c1.456 1.594 4.107 2.218 4.107 2.218a4.21 4.21 0 0 1 2.359 1.594s1.596 2.245 3.594 2.993c0 0 1.915.818 2.984-1.718 0 0-1.25 1.718-3.4.25 0 0-.833-.514-2.012-2.468a4.622 4.622 0 0 0-.347-.554 2.276 2.276 0 0 0-.292-.347l-.097-.097-.139-.124a3.824 3.824 0 0 0-.93-.638l-.152-.07-.167-.069-.069-.027a1.154 1.154 0 0 0-.291-.084 3.224 3.224 0 0 0-.639-.097c-2.192-.346-2.997-.928-2.997-.928-2.165-1.47-1.096-3.299-1.096-3.299-1.888 1.982-.403 3.465-.417 3.465Zm29.196 0c-1.457 1.594-4.093 2.218-4.093 2.218-.944.235-1.79.79-2.373 1.594 0 0-1.582 2.245-3.58 2.993 0 0-1.916.818-2.984-1.718 0 0 1.249 1.718 3.4.25 0 0 .832-.514 1.998-2.468.097-.194.222-.374.347-.554.083-.111.18-.236.291-.347.028-.041.07-.069.097-.097l.14-.124c.277-.25.596-.472.943-.638l.152-.07.167-.069.07-.027c.18-.07.29-.084.29-.084.209-.055.43-.083.639-.11 2.193-.347 2.997-.929 2.997-.929 2.151-1.47 1.097-3.299 1.097-3.299 1.887 1.996.402 3.48.402 3.48ZM17.623 35l.916-6.14h-1.831l.916 6.14Zm17.11-12.82-5.425-2.939-.292.943-.291.942 6.009 1.053Zm-34.483 0 5.426-2.939.291.943.291.942L.25 22.179ZM28.198 1.333l-2.9 5.613-.778-.582-.777-.582 4.455-4.45Zm-21.412 0 2.9 5.613.777-.582.777-.582-4.454-4.45Z"/></svg>