<svg width="20" height="21" fill="none" xmlns="http://www.w3.org/2000/svg"><path d="M17.36 3.94H14V2.66a.16.16 0 0 0-.16-.16h-1.12a.16.16 0 0 0-.16.16v1.28H7.44V2.66a.16.16 0 0 0-.16-.16H6.16a.16.16 0 0 0-.16.16v1.28H2.64a.64.64 0 0 0-.64.64v13.28c0 .354.286.64.64.64h14.72a.64.64 0 0 0 .64-.64V4.58a.64.64 0 0 0-.64-.64Zm-.8 13.12H3.44v-7.6h13.12v7.6ZM3.44 8.1V5.38H6v.96c0 .088.072.16.16.16h1.12a.16.16 0 0 0 .16-.16v-.96h5.12v.96c0 .088.072.16.16.16h1.12a.16.16 0 0 0 .16-.16v-.96h2.56V8.1H3.44Z" fill="#767676"/></svg>